<?xml version="1.0" standalone="no"?>
<!DOCTYPE svg PUBLIC "-//W3C//DTD SVG 20010904//EN"
 "http://www.w3.org/TR/2001/REC-SVG-20010904/DTD/svg10.dtd">
<svg version="1.0" xmlns="http://www.w3.org/2000/svg"
 width="1024.000000pt" height="1024.000000pt" viewBox="0 0 1024.000000 1024.000000"
 preserveAspectRatio="xMidYMid meet">
<metadata>
Created by potrace 1.14, written by Peter Selinger 2001-2017
</metadata>
<g transform="translate(0.000000,1024.000000) scale(0.100000,-0.100000)"
fill="#000000" stroke="none">
<path d="M6350 10230 c-8 -4 -46 -22 -85 -40 -86 -41 -190 -141 -319 -305 -22
-28 -44 -54 -50 -60 -6 -5 -40 -46 -76 -90 -35 -44 -69 -85 -75 -91 -5 -6 -24
-29 -42 -50 -82 -101 -108 -132 -143 -174 -21 -25 -75 -90 -120 -145 -45 -55
-94 -114 -108 -131 -15 -17 -42 -49 -60 -72 -19 -22 -43 -51 -54 -64 -11 -13
-32 -39 -47 -58 -14 -19 -31 -39 -37 -45 -9 -9 -91 -106 -121 -145 -16 -20
-130 -159 -157 -190 -11 -14 -41 -50 -66 -80 -25 -30 -47 -57 -50 -60 -3 -3
-35 -41 -70 -85 -36 -44 -67 -82 -70 -85 -8 -7 -221 -268 -248 -304 -12 -16
-22 -25 -22 -20 0 5 -6 0 -12 -11 -9 -16 -162 -206 -203 -251 -5 -7 -21 -26
-35 -44 -14 -17 -36 -45 -50 -60 -14 -16 -35 -41 -47 -57 -12 -15 -30 -37 -40
-48 -10 -11 -47 -56 -82 -100 -36 -44 -75 -91 -88 -105 -12 -14 -66 -79 -119
-145 -53 -66 -105 -129 -115 -140 -10 -11 -40 -47 -66 -80 -26 -33 -52 -65
-58 -71 -5 -6 -26 -30 -45 -54 -32 -40 -128 -156 -168 -205 -10 -11 -57 -69
-107 -130 -49 -60 -92 -112 -95 -115 -3 -3 -32 -39 -65 -80 -32 -41 -64 -80
-70 -86 -5 -6 -21 -25 -35 -43 -14 -18 -32 -40 -41 -49 -8 -10 -33 -39 -55
-67 -21 -27 -41 -52 -44 -55 -10 -10 -65 -77 -92 -111 -15 -20 -37 -47 -50
-61 -13 -14 -32 -37 -42 -52 -11 -15 -30 -39 -43 -54 -13 -15 -29 -34 -36 -42
-7 -8 -31 -37 -53 -65 -21 -27 -41 -52 -44 -55 -3 -3 -22 -26 -43 -52 -21 -26
-43 -53 -50 -60 -7 -7 -24 -29 -38 -48 -15 -19 -35 -45 -45 -56 -11 -12 -31
-37 -46 -55 -14 -19 -36 -45 -48 -59 -40 -47 -55 -65 -85 -105 -16 -22 -36
-47 -45 -55 -8 -9 -28 -33 -45 -54 -16 -21 -55 -68 -85 -105 -30 -37 -71 -87
-90 -110 -19 -24 -39 -52 -44 -62 -5 -10 -12 -19 -16 -19 -4 0 -25 -24 -47
-53 -22 -28 -49 -63 -61 -77 -12 -14 -39 -47 -62 -73 -82 -98 -171 -246 -187
-310 -19 -80 -6 -200 25 -220 6 -4 12 -14 12 -21 0 -16 76 -71 134 -96 25 -10
46 -17 46 -14 0 2 8 0 19 -5 10 -6 36 -13 57 -16 22 -3 53 -7 69 -10 137 -21
1126 -36 1475 -21 332 14 434 14 509 1 40 -8 78 -18 84 -24 6 -6 19 -11 28
-11 27 0 115 -86 135 -132 41 -98 40 -252 -1 -450 -8 -37 -17 -82 -20 -100 -3
-18 -9 -42 -12 -53 -4 -11 -8 -27 -9 -35 -1 -8 -14 -73 -29 -145 -14 -71 -28
-139 -29 -150 -2 -11 -6 -33 -10 -50 -3 -16 -8 -40 -11 -53 -2 -13 -6 -31 -9
-40 -3 -9 -7 -33 -10 -52 -3 -19 -10 -60 -16 -90 -6 -30 -13 -64 -14 -75 -4
-21 -16 -87 -23 -120 -2 -11 -6 -29 -7 -40 -4 -24 -12 -63 -32 -170 -8 -44
-17 -96 -20 -115 -3 -19 -7 -42 -9 -50 -3 -8 -7 -33 -10 -55 -4 -22 -8 -47
-10 -55 -3 -8 -7 -35 -11 -60 -10 -71 -12 -85 -14 -85 -1 0 -3 -11 -6 -25 -17
-96 -44 -251 -50 -280 -3 -19 -8 -44 -9 -55 -3 -18 -23 -119 -30 -155 -2 -8
-4 -17 -5 -20 -1 -3 -2 -8 -1 -12 0 -4 -4 -31 -9 -60 -6 -29 -13 -69 -16 -88
-3 -19 -7 -43 -10 -52 -6 -21 -13 -56 -19 -93 -2 -16 -7 -41 -9 -54 -9 -39 -9
-291 -1 -346 20 -142 115 -238 277 -280 60 -15 201 -13 243 4 17 7 30 11 30 9
0 -5 99 55 113 69 7 7 17 13 21 13 12 0 155 148 198 205 5 6 24 29 43 51 19
22 53 62 75 89 22 27 56 68 75 91 19 23 51 61 70 84 19 23 44 53 55 65 11 13
27 32 35 42 82 99 216 260 225 269 5 7 21 26 35 44 14 18 32 39 40 47 42 45
170 207 170 216 0 6 3 7 6 4 4 -4 23 15 42 41 20 26 41 52 47 58 5 6 26 30 45
54 19 24 47 57 62 74 14 17 65 78 113 136 48 58 106 128 129 155 39 46 265
316 354 424 21 25 47 55 58 67 12 12 32 37 45 56 13 18 31 40 39 48 8 9 35 40
60 70 25 30 52 61 60 70 8 9 27 31 42 50 15 19 38 48 52 63 13 16 40 47 58 70
18 23 40 48 48 57 8 9 33 38 55 65 21 28 49 61 61 75 13 14 64 75 114 135 51
61 111 132 133 159 23 27 48 58 56 70 8 11 22 27 30 36 28 28 85 96 106 125
11 15 26 34 33 41 8 8 41 47 74 87 57 68 115 137 148 177 36 42 196 236 240
291 19 24 42 50 50 59 8 8 31 36 49 60 19 25 42 53 50 62 22 24 38 43 99 118
60 73 110 133 132 160 8 10 29 35 45 55 17 21 47 58 69 84 21 25 45 55 55 66
9 11 77 94 151 185 74 91 137 167 140 170 3 3 21 25 40 50 19 25 37 47 40 50
3 3 23 28 45 55 21 28 42 52 45 55 5 4 69 84 93 115 4 5 17 21 28 35 29 35 69
84 126 155 26 33 55 67 64 75 13 12 71 81 140 168 5 6 7 12 3 12 -4 0 1 9 10
19 32 35 56 134 51 213 -2 40 -6 82 -8 93 -18 74 -78 180 -126 223 -28 24
-106 65 -131 68 -8 1 -28 4 -45 8 -33 7 -141 8 -195 1 -161 -20 -536 -21 -567
-2 -7 5 -13 5 -13 0 0 -4 -26 -7 -57 -5 -124 5 -562 4 -572 -3 -6 -3 -11 -1
-11 5 0 6 -5 8 -11 4 -29 -17 -603 -22 -634 -5 -5 3 -19 7 -30 8 -63 9 -144
61 -179 114 -39 58 -54 130 -49 234 3 82 9 140 13 140 2 0 9 36 15 75 3 19 11
62 19 95 8 33 17 71 20 85 2 14 16 79 30 146 14 66 28 138 32 159 3 21 9 48
14 59 4 12 8 24 8 29 0 10 13 87 19 112 2 11 6 29 8 40 2 11 6 30 8 41 3 12 8
38 11 58 3 20 10 54 15 75 5 22 6 42 3 46 -3 3 0 5 7 5 7 0 10 4 7 9 -5 8 2
58 19 131 3 14 8 41 11 60 2 19 7 42 9 50 3 8 7 32 11 54 3 21 8 48 10 60 2
11 7 36 10 55 3 18 8 43 10 55 10 45 13 62 18 96 3 19 21 121 41 225 19 105
38 204 41 220 3 17 14 75 24 130 11 55 22 114 25 130 2 17 7 41 10 55 3 14 8
36 10 50 2 14 6 34 8 45 2 11 8 38 12 60 5 22 9 45 11 50 1 6 5 28 8 51 4 22
11 55 16 73 5 17 9 34 9 36 0 3 3 31 7 63 21 159 -12 262 -110 348 -43 38
-143 94 -211 119 -28 10 -187 14 -205 5z"/>
</g>
</svg>
