<svg xmlns="http://www.w3.org/2000/svg" aria-hidden="true" style="position:absolute;width:0;height:0;overflow:hidden">
  <defs>
    <symbol id="icon-header" viewBox="0 0 32 32">
      <path fill="#1f1f1f" d="M24 0H8a8 8 0 0 0-8 8v16a8 8 0 0 0 8 8h16a8 8 0 0 0 8-8V8a8 8 0 0 0-8-8z" style="fill:var(--color1, #1f1f1f)"/>
      <path fill="#fff" d="M13.33 23.03c.25-1.28.45-2.61.75-3.95.14-.7-.03-1-.82-.95s-1.65.03-2.49 0c-.83-.02-.98-.44-.5-1.04 2.36-2.92 4.75-5.8 7.13-8.68.27-.32.58-.55 1.02-.3s.35.54.27.9c-.26 1.35-.48 2.68-.77 4-.14.67.05.92.76.89.7-.04 1.42-.04 2.12 0 .4 0 .94-.21 1.14.34s-.23.78-.45 1.1c-.9 1.12-1.82 2.23-2.75 3.35a1579.8 1579.8 0 0 0-4.05 4.85c-.26.32-.56.57-1 .41s-.36-.54-.36-.92z" style="fill:var(--color2, #fff)"/>
    </symbol>
    <symbol id="icon-arrow-circle-broken-right" viewBox="0 0 32 32">
      <path stroke-linecap="round" stroke-linejoin="round" stroke-width="2.6" d="M4.45 9.33a13.33 13.33 0 1 1 0 13.33"/>
      <path stroke-linecap="round" stroke-linejoin="round" stroke-width="2.6" d="M16 21.33 21.33 16 16 10.67M2.67 16h18.66"/>
    </symbol>
    <symbol id="icon-bell" viewBox="0 0 28 32">
      <path fill="none" stroke="#bedbb0" stroke-linecap="round" stroke-linejoin="round" stroke-width="3" d="M10.47 28a5.31 5.31 0 0 0 7.06 0M22 10.67a8 8 0 1 0-16 0c0 4.12-1.04 6.94-2.2 8.8-.98 1.58-1.47 2.37-1.45 2.59.02.24.07.33.27.48.17.13.97.13 2.56.13h17.63c1.6 0 2.4 0 2.57-.13.2-.15.25-.24.27-.48.02-.22-.47-1.01-1.45-2.59-1.16-1.86-2.2-4.68-2.2-8.8z" style="stroke:var(--color3, #bedbb0)"/>
    </symbol>
    <symbol id="icon-colors" viewBox="0 0 32 32">
      <path stroke-linecap="round" stroke-linejoin="round" stroke-width="2.67" d="M16 27.3a8 8 0 1 0 7.44-13.68m-14.88 0a8 8 0 1 0 9.55 4.77M24 10.67a8 8 0 1 1-16 0 8 8 0 0 1 16 0z"/>
    </symbol>
    <symbol id="icon-container" viewBox="0 0 32 32">
      <path stroke-linecap="round" stroke-linejoin="round" stroke-width="2.67" d="M27.33 9.7 16 16m0 0L4.67 9.7M16 16v12.67m12-7.26V10.6c0-.46 0-.69-.07-.9a1.34 1.34 0 0 0-.28-.48c-.15-.15-.35-.26-.75-.49l-9.86-5.48c-.38-.2-.57-.31-.77-.35a1.35 1.35 0 0 0-.54 0c-.2.04-.39.14-.76.35L5.1 8.72c-.4.23-.6.34-.75.5-.12.13-.22.3-.28.48-.07.2-.07.43-.07.89V21.4c0 .46 0 .69.07.89.06.18.16.35.28.48.15.16.35.27.75.5l9.87 5.48c.37.2.56.31.76.35.18.04.36.04.54 0 .2-.04.39-.14.77-.35l9.86-5.48c.4-.23.6-.34.75-.5.13-.14.22-.3.28-.48.07-.2.07-.43.07-.89z"/>
    </symbol>
    <symbol id="icon-filter" viewBox="0 0 37 32">
      <path stroke-linecap="round" stroke-linejoin="round" stroke-width="3.43" d="M33.52 2.29H3.05L15.24 16.7v9.97l6.1 3.04v-13L33.51 2.28z"/>
    </symbol>
    <symbol id="icon-hexagon" viewBox="0 0 32 32">
      <path stroke-linecap="round" stroke-linejoin="round" stroke-width="2.67" d="M14.96 3.24c.38-.2.57-.31.77-.35.18-.04.36-.04.54 0 .2.04.39.14.77.35l9.86 5.48c.4.22.6.34.75.5.13.13.22.3.28.48.07.2.07.43.07.89V21.4c0 .46 0 .69-.07.89-.06.18-.16.35-.28.48-.15.16-.35.27-.75.5l-9.86 5.48c-.38.2-.57.31-.77.35-.18.04-.36.04-.54 0-.2-.04-.39-.14-.77-.35L5.1 23.28c-.4-.23-.6-.34-.75-.5-.13-.14-.22-.3-.28-.48-.07-.2-.07-.43-.07-.89V10.6c0-.46 0-.69.07-.9.06-.17.15-.34.28-.48.15-.15.35-.27.75-.49l9.86-5.48z"/>
    </symbol>
    <symbol id="icon-lightning" viewBox="0 0 32 32">
      <path stroke-linecap="round" stroke-linejoin="round" stroke-width="2.67" d="M19 2.67h-7.68c-.23 0-.35 0-.46.03a.67.67 0 0 0-.25.16c-.08.07-.13.18-.24.4l-5.6 11.2c-.26.5-.38.76-.35.97.02.18.12.34.27.45.18.12.46.12 1.03.12H14l-4 13.33 16.26-16.86c.54-.57.82-.85.83-1.1a.66.66 0 0 0-.23-.55c-.19-.15-.58-.15-1.37-.15h-9.5l3-8z"/>
    </symbol>
    <symbol id="icon-loading" viewBox="0 0 32 32">
      <path stroke-linecap="round" stroke-linejoin="round" stroke-width="2.67" d="M4.45 22.67a6.37 6.37 0 0 1 9.26-8.33l4.58 3.32a6.36 6.36 0 0 0 9.26-8.33m-4.88 18.22a6.37 6.37 0 0 1-8.33-9.26l3.33-4.58a6.36 6.36 0 0 0-8.33-9.26m16.09 2.12A13.33 13.33 0 1 1 6.57 25.43 13.33 13.33 0 0 1 25.43 6.57z"/>
    </symbol>
    <symbol id="icon-pencil" viewBox="0 0 32 32">
      <path stroke-linecap="round" stroke-linejoin="round" stroke-width="2.6" d="m3.33 28.67 7.4-2.85c.47-.18.71-.27.93-.4.2-.1.39-.22.56-.35.2-.16.38-.34.74-.7L28 9.33A3.77 3.77 0 1 0 22.67 4L7.63 19.04c-.36.36-.54.54-.7.74a3.9 3.9 0 0 0-.36.56c-.12.22-.21.45-.4.93l-2.84 7.4zm0 0 2.75-7.14c.2-.5.3-.76.46-.88.15-.1.33-.14.5-.1.2.03.4.22.79.61l3 3.01c.4.39.59.58.63.79.03.17 0 .35-.1.5-.13.17-.38.27-.9.46l-7.13 2.75z"/>
    </symbol>
    <symbol id="icon-plus" viewBox="0 0 32 32">
      <path stroke-linecap="round" stroke-linejoin="round" stroke-width="2.88" d="M16 6.67v18.66M6.67 16h18.66"/>
    </symbol>
    <symbol id="icon-project" viewBox="0 0 32 32">
      <path stroke-width="2.67" d="M4.4 6.98A3.47 3.47 0 0 1 6.98 4.4a7.4 7.4 0 0 1 3.37 0c1.29.3 2.29 1.3 2.59 2.58a7.4 7.4 0 0 1 0 3.37 3.47 3.47 0 0 1-2.58 2.59 7.4 7.4 0 0 1-3.38 0 3.47 3.47 0 0 1-2.58-2.58 7.4 7.4 0 0 1 0-3.38zM4.4 21.64a3.47 3.47 0 0 1 2.58-2.58 7.38 7.38 0 0 1 3.37 0c1.29.3 2.29 1.3 2.59 2.58a7.4 7.4 0 0 1 0 3.38 3.47 3.47 0 0 1-2.58 2.58 7.38 7.38 0 0 1-3.38 0 3.46 3.46 0 0 1-2.58-2.58 7.4 7.4 0 0 1 0-3.38zM19.06 6.98a3.46 3.46 0 0 1 2.58-2.58 7.4 7.4 0 0 1 3.38 0c1.28.3 2.28 1.3 2.58 2.58a7.38 7.38 0 0 1 0 3.37 3.46 3.46 0 0 1-2.58 2.59 7.4 7.4 0 0 1-3.38 0 3.47 3.47 0 0 1-2.58-2.58 7.38 7.38 0 0 1 0-3.38zM19.06 21.64a3.46 3.46 0 0 1 2.58-2.58 7.38 7.38 0 0 1 3.38 0c1.28.3 2.28 1.3 2.58 2.58a7.38 7.38 0 0 1 0 3.38 3.46 3.46 0 0 1-2.58 2.58 7.38 7.38 0 0 1-3.38 0 3.46 3.46 0 0 1-2.58-2.58 7.38 7.38 0 0 1 0-3.38z"/>
    </symbol>
    <symbol id="icon-puzzle-piece" viewBox="0 0 32 32">
      <path stroke-linecap="round" stroke-linejoin="round" stroke-width="2.67" d="m16 2.67 4.8 4.8C24-.93 32.93 8 24.53 11.2l4.8 4.8-4.8 4.8c-3.2-8.4-12.13.53-3.73 3.73l-4.8 4.8-4.8-4.8C8 32.93-.93 24 7.47 20.8L2.67 16l4.8-4.8c3.2 8.4 12.13-.53 3.73-3.73l4.8-4.8z"/>
    </symbol>
    <symbol id="icon-star" viewBox="0 0 32 32">
      <path stroke-linecap="round" stroke-linejoin="round" stroke-width="2.67" d="m16 2.67 2.68 6.97c.38.98.57 1.47.86 1.88a4 4 0 0 0 .94.94c.41.3.9.48 1.88.86L29.33 16l-6.97 2.68c-.98.38-1.47.57-1.88.86a4 4 0 0 0-.94.94c-.3.41-.48.9-.86 1.88L16 29.33l-2.68-6.97a8.64 8.64 0 0 0-.86-1.88 4.01 4.01 0 0 0-.94-.94c-.41-.3-.9-.48-1.88-.86L2.67 16l6.97-2.68a8.64 8.64 0 0 0 1.88-.86c.36-.26.68-.58.94-.94.3-.41.48-.9.86-1.88L16 2.67z"/>
    </symbol>
    <symbol id="icon-trash" viewBox="0 0 32 32">
      <path stroke-linecap="round" stroke-linejoin="round" stroke-width="2.6" d="M12 4h8M4 8h24M6.67 8l.8 12.02c.15 2.23.22 3.35.59 4.24a6 6 0 0 0 3.67 3.44c.92.3 2.03.3 4.27.3 2.24 0 3.35 0 4.27-.3a6 6 0 0 0 3.68-3.44c.36-.9.43-2.01.58-4.24L25.33 8"/>
    </symbol>
    <symbol id="icon-user" viewBox="0 0 28 32">
      <path fill="#ecedfd" d="M3.28 0h21.33a3.28 3.28 0 0 1 3.29 3.28v21.33a3.28 3.28 0 0 1-3.29 3.29H3.29A3.28 3.28 0 0 1 0 24.6V3.29A3.28 3.28 0 0 1 3.28 0z" style="fill:var(--color4, #ecedfd)"/>
      <path fill="#fff" d="M18.73 12.86a4.65 4.65 0 1 1-9.3 0 4.65 4.65 0 0 1 9.3 0z" style="fill:var(--color2, #fff)"/>
      <path fill="#fff" d="M25.34 28.64a11.44 11.44 0 0 0-22.88 0h22.87z" style="fill:var(--color2, #fff)"/>
      <path fill="#ecedfd" d="M16.41 22.15h-4.92a2.46 2.46 0 0 0-2.47 2.47v4.92c0 1.36 1.1 2.46 2.47 2.46h4.92c1.36 0 2.46-1.1 2.46-2.46v-4.92c0-1.36-1.1-2.47-2.46-2.47z" style="fill:var(--color4, #ecedfd)"/>
      <path fill="none" stroke="#161616" stroke-linecap="round" stroke-linejoin="round" stroke-width=".41" d="M13.95 25.88v2.4M12.75 27.08h2.4" style="stroke:var(--color5, #161616)"/>
    </symbol>
  </defs>
</svg>
